<svg clip-rule="evenodd" fill-rule="evenodd" stroke-linejoin="round" stroke-miterlimit="2" viewBox="0 0 512 513" xmlns="http://www.w3.org/2000/svg" xmlns:xlink="http://www.w3.org/1999/xlink"><clipPath id="_clip1"><path clip-rule="evenodd" d="m0 .5h512v512h-512z"/></clipPath><g clip-path="url(#_clip1)"><path d="m421.34 451.023h10.058c8.886 0 16.157 7.272 16.154 16.157v29.164c-.003 8.884-7.274 16.155-16.159 16.155l-126.123.001c-8.886 0-16.159-7.272-16.155-16.156l.002-29.167c0-8.887 7.272-16.156 16.158-16.156h2.999c-5.319-29.126-10.825-65.242-8.523-76.187 3.369-16.027 18.539-46.33 29.518-58.481 15.867-17.559 79.706-51.067 79.688-51.057 2.501-1.324 5.099-2.24 7.707-2.78l-9.388-64.749c-2.129-14.675 7.046-28.036 20.024-29.92.267-.039.534-.072.801-.1.325-12.608 8.818-23.262 20.308-24.929 4.722-.683 9.369.215 13.487 2.346.004-14.827 11.002-26.726 24.119-26.723 13.118.005 24.104 11.91 24.107 26.742l-.02 113.386c0 .401-.06.8-.179 1.184l-24.88 80.259c-.106.342-.257.667-.449.969l-62.208 97.419zm-108.332 7.998h-7.733c-4.486 0-8.158 3.669-8.158 8.156l-.002 29.168c-.002 4.485 3.67 8.155 8.155 8.155l126.123-.001c4.486 0 8.157-3.671 8.159-8.157v-29.163c.002-4.485-3.669-8.156-8.154-8.156h-14.36c-.026 0-.052 0-.078 0l-103.815-.002c-.046 0-.092 0-.137 0zm148.89-304.171c-3.394-3.096-7.795-4.773-12.342-4.115-8.8 1.277-14.56 10.56-13.29 20.494.011.085.02.171.025.256.006.036.012.072.017.108l12.285 84.732c.074.512.048 1.033-.076 1.535l-3.125 12.626 16.487-40.475zm-48.585 296.173 1.182-14.271c.054-.648.265-1.274.616-1.822l62.45-97.801 24.541-79.167.02-112.778c-.002-10.182-7.104-18.74-16.109-18.743-9.005-.002-16.117 8.553-16.117 18.732l-.003 7.786c.004.069.006.138.006.207l-.02 77.63c0 .517-.101 1.029-.296 1.508l-24.884 61.092c-.032.077-.065.153-.101.228-2.299 5.709-6.73 10.867-12.845 14.171l-48.62 34.301c-1.804 1.273-4.302.842-5.574-.962-1.273-1.804-.842-4.302.962-5.575l48.822-34.443c.139-.098.284-.187.434-.267 4.542-2.403 7.839-6.194 9.48-10.415.028-.073.058-.144.09-.214 1.521-4.067 1.497-8.518-.546-12.373l-.001-.002c-2.85-5.387-8.836-8.16-15.139-7.918-.084.01-.169.017-.254.021-2.914.148-5.895.93-8.708 2.419-.006.003-.012.006-.019.009 0 0-62.079 32.303-77.475 49.34-10.28 11.378-24.471 39.757-27.625 54.764-2.249 10.692 3.61 46.309 8.825 74.541zm15.509-275.308c-.123.015-.247.031-.37.049h-.002c-8.909 1.292-14.718 10.782-13.257 20.855l9.481 65.386c4.955.41 9.596 2.167 13.318 5.084l2.571-10.391zm-338.162 275.308-1.046-12.623-62.208-97.419c-.192-.302-.343-.627-.449-.969l-24.88-80.259c-.119-.384-.179-.783-.179-1.184l-.02-113.386c.003-14.832 10.989-26.737 24.107-26.742 13.117-.003 24.115 11.897 24.119 26.723 4.118-2.131 8.765-3.029 13.487-2.346 11.49 1.667 19.983 12.321 20.308 24.929.267.028.534.061.801.1 12.978 1.884 22.153 15.245 20.024 29.92 0 0-9.388 64.749-9.388 64.748 2.608.541 5.206 1.457 7.689 2.771 0 0 63.839 33.508 79.706 51.067 10.979 12.151 26.149 42.454 29.518 58.481 2.302 10.945-3.204 47.061-8.523 76.187h2.999c8.886 0 16.158 7.269 16.158 16.156l.002 29.166c.004 8.885-7.269 16.157-16.155 16.157l-126.123-.001c-8.885 0-16.156-7.271-16.159-16.155v-29.163c-.003-8.886 7.268-16.158 16.154-16.158zm-3.334-189.018 9.481-65.386c1.461-10.073-4.348-19.563-13.257-20.855h-.002c-.123-.018-.247-.034-.37-.049l-11.741 80.983 2.571 10.391c3.722-2.917 8.363-4.674 13.318-5.084zm7.636 197.018h-14.36c-4.485 0-8.156 3.671-8.154 8.156v29.163c.002 4.486 3.673 8.157 8.159 8.157l126.123.001c4.485 0 8.157-3.67 8.155-8.155l-.002-29.168c0-4.486-3.672-8.156-8.158-8.156h-7.733c-.045 0-.091 0-.137 0l-103.815.002c-.026 0-.052 0-.078 0zm100.633-8.002c5.215-28.232 11.074-63.849 8.825-74.541-3.154-15.007-17.345-43.386-27.625-54.764-15.396-17.037-77.475-49.34-77.475-49.34-.007-.003-.013-.006-.019-.009-2.813-1.489-5.794-2.271-8.708-2.419-.085-.004-.17-.011-.254-.021-6.303-.242-12.289 2.531-15.139 7.918l-.001.002c-2.043 3.855-2.067 8.306-.546 12.373.032.07.062.141.09.214 1.641 4.221 4.938 8.012 9.48 10.415.15.08.295.169.434.267l48.822 34.443c1.804 1.273 2.235 3.771.962 5.575-1.272 1.804-3.77 2.235-5.574.962 0 0-48.62-34.301-48.615-34.298-6.12-3.307-10.551-8.465-12.85-14.174-.036-.075-.069-.151-.101-.228l-24.884-61.092c-.195-.479-.296-.991-.296-1.508l-.02-77.63c0-.069.002-.138.006-.207l-.003-7.786c0-10.179-7.112-18.734-16.117-18.732-9.005.003-16.107 8.561-16.109 18.743l.02 112.778 24.541 79.167 62.45 97.801c.351.548.562 1.174.616 1.822l1.182 14.271zm-119.886-279.536c.005-.085.014-.171.025-.256 1.27-9.934-4.49-19.217-13.29-20.494-4.547-.658-8.948 1.019-12.342 4.115l.019 75.161 16.487 40.475-3.125-12.626c-.124-.502-.15-1.023-.076-1.535l12.285-84.732c.005-.036.011-.072.017-.108zm154.876-127.596c41.441-39.24 105.872-66.185 166.138-16.32 38.001 31.442 40.809 94.561 3.62 149.223-38.611 56.752-105.472 110.684-155.772 135.378-1.486.729-3.269.468-4.483-.659-31.165-28.917-98.702-84.164-134.971-144.262-24.875-41.219-35.029-84.715-10.604-123.901 37.902-60.806 105.311-36.799 136.072.541zm2.409 8.805c-11.136 11.033-20.324 22.848-26.878 33.868-1.128 1.897-3.585 2.521-5.482 1.393-1.898-1.129-2.522-3.585-1.394-5.483 6.364-10.7 15.09-22.124 25.625-32.941-27.639-34.143-89.079-57.274-123.562-1.951-22.79 36.562-12.546 77.077 10.664 115.536 35.089 58.144 99.89 111.596 131.528 140.653 49.005-24.727 113.012-76.766 150.234-131.477 34.525-50.747 33.173-109.369-2.106-138.56-57.964-47.96-119.953-19.359-158.629 18.962zm20.681 177.975c-27.593 3.844-56.6-4.836-77.799-26.034-21.344-21.345-29.997-50.607-25.953-78.369.252-1.733 1.613-3.094 3.346-3.347 21.591-3.144 44.088 1.39 63.063 13.6 4.784-22.051 17.486-41.166 34.976-54.209 1.404-1.047 3.329-1.047 4.733 0 17.49 13.043 30.193 32.158 34.976 54.209 18.975-12.21 41.472-16.744 63.063-13.6 1.733.253 3.094 1.614 3.346 3.347 4.044 27.762-4.608 57.024-25.953 78.369-21.198 21.198-50.206 29.878-77.798 26.034zm-4.001-29.52c-2.606-17.09-10.484-33.528-23.634-46.678-1.214-1.215-2.457-2.384-3.725-3.509-.102 1.692-.153 3.398-.153 5.115 0 24.229 10.275 46.076 26.699 61.421-.212-5.457.059-10.93.813-16.349zm13.89 22.439c22.465.764 45.179-7.419 62.311-24.551 18.75-18.75 26.781-44.185 24.096-68.662-19.91-2.184-40.453 2.722-57.517 14.719.429 3.602.65 7.267.65 10.983 0 26.671-11.377 50.707-29.54 67.511zm-48.669-78.494c-17.064-11.997-37.607-16.903-57.517-14.719-2.684 24.477 5.346 49.912 24.096 68.662 17.132 17.132 39.846 25.315 62.311 24.551-18.163-16.804-29.54-40.84-29.54-67.511 0-3.716.221-7.381.65-10.983zm43.593 72.404c16.425-15.345 26.7-37.192 26.7-61.421 0-1.717-.052-3.423-.154-5.115-1.268 1.125-2.511 2.294-3.725 3.509-13.15 13.15-21.028 29.588-23.634 46.678.754 5.419 1.025 10.892.813 16.349zm25.449-75.932c-3.583-20.549-14.64-38.544-30.263-51.079-15.622 12.535-26.679 30.53-30.262 51.079 2.85 2.243 5.598 4.679 8.226 7.307 10.303 10.302 17.648 22.45 22.037 35.383 4.388-12.933 11.733-25.081 22.036-35.383 2.628-2.628 5.376-5.064 8.226-7.307z"/></g></svg>