<svg id="Layer_1" enable-background="new 0 0 512 512" viewBox="0 0 512 512" xmlns="http://www.w3.org/2000/svg"><path d="m221.566 276.791 24.574-14.191c10.049 9.634 22.051 16.942 35.187 21.423v27.281c0 3.859 3.128 6.987 6.987 6.987h47.878c3.859 0 6.987-3.128 6.987-6.987v-27.281c13.136-4.48 25.139-11.789 35.187-21.423l24.574 14.191c3.343 1.932 7.613.786 9.544-2.555l23.952-41.442c.928-1.604 1.18-3.512.7-5.303-.479-1.79-1.65-3.317-3.256-4.244l-27.032-15.612c1.826-12.275 1.259-24.839-1.661-36.86l28.69-16.552c1.606-.927 2.778-2.453 3.258-4.244.48-1.79.229-3.698-.698-5.304l-23.952-41.471c-.927-1.604-2.453-2.775-4.244-3.255-1.788-.479-3.698-.229-5.302.699l-31.138 17.988c-8.539-6.794-18.284-12.134-28.622-15.685v-36.815c0-3.859-3.128-6.987-6.987-6.987h-47.878c-3.859 0-6.987 3.128-6.987 6.987v36.816c-10.338 3.551-20.083 8.891-28.623 15.685l-31.137-17.987c-1.604-.93-3.517-1.18-5.302-.7-1.791.479-3.317 1.65-4.244 3.255l-23.953 41.471c-.927 1.605-1.179 3.514-.698 5.304.479 1.791 1.651 3.317 3.258 4.244l28.691 16.552c-1.38 5.682-2.215 11.485-2.54 17.321h-34.835v-126.611c0-3.859-3.128-6.987-6.987-6.987h-48.357c-3.481-30.614-29.53-54.481-61.06-54.481-33.895 0-61.47 27.575-61.47 61.469 0 33.895 27.575 61.47 61.47 61.47 31.53 0 57.579-23.868 61.06-54.482h41.37v119.622h-44.224c-3.142-30.97-29.369-55.219-61.154-55.219-33.894 0-61.469 27.575-61.469 61.47 0 33.894 27.575 61.469 61.469 61.469 31.277 0 57.154-23.486 60.967-53.745h44.411v119.651h-43.867c-3.391-30.71-29.487-54.681-61.085-54.681-33.895 0-61.47 27.575-61.47 61.469 0 33.895 27.575 61.47 61.47 61.47 31.461 0 57.463-23.765 61.035-54.283h50.905c3.859 0 6.987-3.128 6.987-6.987v-126.641h35.07c.167 1.859.369 3.716.644 5.564l-27.033 15.612c-1.605.927-2.776 2.454-3.256 4.244-.479 1.791-.228 3.698.7 5.303l23.953 41.443c1.93 3.339 6.202 4.485 9.543 2.555zm-156.026-262.799c26.188 0 47.494 21.306 47.494 47.494 0 4.6-.67 9.044-1.896 13.253-6.952-7.671-15.751-13.391-25.501-16.712 2.826-4.003 4.494-8.881 4.494-14.144 0-13.56-11.031-24.591-24.591-24.591s-24.591 11.032-24.591 24.592c0 5.267 1.67 10.148 4.501 14.154-9.763 3.333-18.559 9.062-25.506 16.713-1.228-4.213-1.899-8.661-1.899-13.265 0-26.188 21.307-47.494 47.495-47.494zm0 40.507c-5.854 0-10.616-4.762-10.616-10.615s4.763-10.616 10.616-10.616 10.616 4.763 10.616 10.616-4.762 10.615-10.616 10.615zm0 54.482c-16.062 0-30.278-8.022-38.877-20.263 8.653-12.393 22.348-19.683 37.792-20.024 15.731-.321 30.437 6.855 39.455 19.265.176.242.368.464.567.676-8.594 12.288-22.838 20.346-38.937 20.346zm-2.948 132.86c-26.188 0-47.494-21.306-47.494-47.494s21.306-47.495 47.494-47.495 47.495 21.307 47.495 47.495-21.307 47.494-47.495 47.494zm.426 134.164c-26.188 0-47.495-21.307-47.495-47.495s21.307-47.494 47.495-47.494 47.494 21.306 47.494 47.494-21.306 47.495-47.494 47.495zm140.649-144.151 25.213-14.562c2.603-1.503 3.952-4.5 3.353-7.444-2.728-13.401-2.06-27.365 1.932-40.383.954-3.113-.368-6.473-3.189-8.101l-27.309-15.753 16.962-29.366 29.325 16.942c2.606 1.505 5.884 1.173 8.135-.826 9.174-8.147 20.28-14.216 32.119-17.547 3.014-.849 5.095-3.597 5.095-6.727v-34.964h33.903v34.965c0 3.13 2.081 5.878 5.095 6.727 11.839 3.332 22.945 9.399 32.117 17.546 2.251 2 5.529 2.335 8.136.827l29.326-16.942 16.961 29.366-27.308 15.753c-2.821 1.628-4.144 4.987-3.189 8.101 3.991 13.018 4.659 26.981 1.932 40.383-.6 2.944.75 5.941 3.353 7.444l25.213 14.562-16.96 29.343-23.205-13.401c-2.822-1.631-6.399-1.092-8.616 1.298-10.249 11.046-23.301 19.018-37.746 23.054-3.02.844-5.107 3.595-5.107 6.729v25.44h-33.903v-25.44c0-3.135-2.088-5.886-5.107-6.729-14.444-4.036-27.497-12.008-37.746-23.054-2.218-2.39-5.794-2.929-8.616-1.298l-23.205 13.401zm108.572 29.291c36.427 0 66.062-29.635 66.062-66.062 0-36.41-29.635-66.032-66.062-66.032-36.411 0-66.033 29.622-66.033 66.032 0 36.427 29.622 66.062 66.033 66.062zm0-13.975c-17.753 0-33.452-8.944-42.853-22.559 9.519-13.815 25.275-22.139 42.383-22.296.167-.002.331-.002.497-.002 17.269 0 33.261 8.299 42.855 22.267.002.003.005.007.008.01-9.403 13.627-25.117 22.58-42.89 22.58zm0-59.074c-6.666 0-12.09-5.424-12.09-12.09s5.424-12.09 12.09-12.09c6.682 0 12.118 5.424 12.118 12.09s-5.436 12.09-12.118 12.09zm0-45.071c28.721 0 52.087 23.353 52.087 52.058 0 5.417-.833 10.644-2.375 15.56-7.753-8.842-17.736-15.359-28.855-18.994 3.286-4.36 5.236-9.778 5.236-15.643 0-14.372-11.705-26.064-26.093-26.064-14.372 0-26.064 11.692-26.064 26.064 0 5.868 1.951 11.289 5.236 15.65-11.122 3.642-21.097 10.171-28.852 18.999-1.544-4.919-2.378-10.149-2.378-15.571 0-28.706 23.353-52.059 52.058-52.059zm-220.836 31.586c2.728 2.73 2.726 7.154-.005 9.882l-29.622 29.594c-1.364 1.362-3.151 2.044-4.938 2.044-1.788 0-3.576-.682-4.94-2.047l-18.113-18.113c-2.729-2.729-2.729-7.152 0-9.881 2.729-2.73 7.152-2.73 9.881 0l13.175 13.175 24.682-24.658c2.728-2.727 7.151-2.727 9.88.004zm-14.411 147.111h-6.987v-8.958h6.987c3.859 0 6.987-3.128 6.987-6.987s-3.128-6.987-6.987-6.987h-6.987v-4.182c0-3.859-3.128-6.987-6.987-6.987s-6.987 3.128-6.987 6.987v4.182h-6.988c-10.168 0-18.439 8.284-18.439 18.468 0 10.168 8.271 18.439 18.439 18.439h6.988v8.957h-6.988c-3.859 0-6.987 3.128-6.987 6.987s3.128 6.987 6.987 6.987h6.988v3.784c0 3.859 3.128 6.987 6.987 6.987s6.987-3.128 6.987-6.987v-3.784h6.987c10.184 0 18.468-8.284 18.468-18.468 0-10.167-8.284-18.438-18.468-18.438zm-27.95 0c-2.462 0-4.465-2.003-4.465-4.465 0-2.478 2.003-4.493 4.465-4.493h6.988v8.958zm27.95 22.931h-6.987v-8.957h6.987c2.436 0 4.493 2.044 4.493 4.464 0 2.478-2.015 4.493-4.493 4.493zm426.898-71.149h-65.622c-3.859 0-6.987 3.128-6.987 6.987v38.311h-64.105c-3.859 0-6.987 3.128-6.987 6.987v35.447h-64.105c-3.859 0-6.987 3.128-6.987 6.987v35.334h-64.077c-3.859 0-6.987 3.128-6.987 6.987v94.45c0 3.859 3.128 6.987 6.987 6.987h65.593c.971 0 1.896-.199 2.736-.557.84.358 1.765.557 2.736.557h65.622c.971 0 1.895-.199 2.735-.557.84.358 1.764.557 2.735.557h65.622c.971 0 1.895-.199 2.735-.557.84.358 1.764.557 2.735.557h65.622c3.859 0 6.987-3.128 6.987-6.987v-224.503c-.001-3.859-3.129-6.987-6.988-6.987zm-271.885 144.028h57.09v80.476h-57.09zm71.064-42.321h57.118v122.797h-57.118zm71.093-42.435h57.118v165.231h-57.118zm122.74 165.232h-51.647v-210.529h51.647z"/></svg>