<svg id="Layer_1" viewBox="0 0 512 512" xmlns="http://www.w3.org/2000/svg" data-name="Layer 1"><path d="m430.979 289.228c-10.591-10.591-27.818-10.661-38.479 0s-10.625 27.854 0 38.479c10.661 10.661 27.889 10.591 38.479 0 10.624-10.625 10.626-27.854 0-38.479zm-90.721 164.387h20.401v-17.678c0-3.528 2.86-6.388 6.388-6.388s6.388 2.86 6.388 6.388v17.678h76.61v-17.678c0-3.528 2.86-6.388 6.388-6.388s6.388 2.86 6.388 6.388v17.678h20.401v-42.474c0-21.251-15.05-40.92-35.861-40.92h-71.242c-20.811 0-35.861 19.668-35.861 40.92zm-65.019-139.029c-10.624-10.625-27.854-10.625-38.479 0s-10.625 27.854 0 38.479 27.854 10.625 38.479 0 10.625-27.855 0-38.479zm-19.239-20.745c22.081 0 39.984 17.903 39.984 39.984s-17.903 39.984-39.984 39.984-39.984-17.903-39.984-39.984 17.903-39.984 39.984-39.984zm-71.482 185.132h20.401v-17.678c0-3.528 2.86-6.388 6.388-6.388s6.388 2.86 6.388 6.388v17.678h76.61v-17.678c0-3.528 2.86-6.388 6.388-6.388s6.388 2.86 6.388 6.388v17.678h20.401v-42.475c0-21.251-15.05-40.92-35.861-40.92h-71.242c-20.811 0-35.861 19.668-35.861 40.92zm-65.018-189.745c-10.66-10.661-27.887-10.592-38.479 0-11.78 11.78-10.265 31.278 3.058 41.115 17.943 13.248 43.39.413 43.39-21.876 0-7.514-3.045-14.316-7.969-19.239zm-90.722 164.387h20.401v-17.678c0-3.528 2.86-6.388 6.388-6.388s6.388 2.86 6.388 6.388v17.678h76.61v-17.678c0-3.528 2.86-6.388 6.388-6.388s6.388 2.86 6.388 6.388v17.678h20.401v-42.474c0-21.251-15.05-40.92-35.861-40.92h-71.242c-20.811 0-35.861 19.668-35.861 40.92v42.474zm272.212-69.806c-3.033-.66-6.165-1.006-9.369-1.006h-71.242c-3.433 0-6.785.398-10.019 1.153v-181.379h-.02c.003-2.965-2.077-5.623-5.095-6.238l-28.08-5.732v-12.701l123.825-32.564v238.466zm-129.93-181.452 26.524 5.414v181.337c-5.32 3.144-10.012 7.323-13.886 12.244-4.044-23.908-23.208-43.907-47.817-43.907h-49.25v-11.378c25.923 9.4 53.613-9.797 53.613-37.6s-27.69-47-53.613-37.6v-85.745l81.378 16.611c1.081.364 1.519.691 3.051.623zm254.309 68.511c-25.923-9.401-53.613 9.798-53.613 37.6s27.691 47.001 53.613 37.6v11.378h-49.251c-24.609 0-43.773 20-47.817 43.907-4.033-5.122-8.95-9.438-14.536-12.621v-251.659h-.014c-.002-4.152-3.935-7.231-7.996-6.163l-22.913 6.026v-37.042h142.526v170.974zm-26.114-183.75v-27.72h-90.299v27.72zm-51.537-40.496v-19.983c0-3.528 2.86-6.388 6.388-6.388s6.388 2.86 6.388 6.388v19.983h45.149c3.528 0 6.388 2.86 6.388 6.388v34.108h19.726c3.528 0 6.388 2.86 6.388 6.388v184.938c18.101 15.931 18.101 44.116 0 60.047v18.954h9.215c27.911 0 48.637 25.51 48.637 53.696v48.862c0 3.528-2.86 6.388-6.388 6.388h-149.352v18.97c0 3.528-2.86 6.388-6.388 6.388h-155.74c-3.528 0-6.388-2.86-6.388-6.388v-18.97h-149.351c-3.528 0-6.388-2.86-6.388-6.388v-48.862c0-28.185 20.726-53.696 48.637-53.696h9.216v-18.954c-18.096-15.92-18.096-44.128 0-60.048v-101.123c0-4.019 3.642-7.258 8.186-6.131l82.348 16.809v-15.003c0-3.121 2.239-5.72 5.199-6.277l100.479-26.424v-46.79c0-3.528 2.86-6.388 6.388-6.388h19.726v-34.108c0-3.528 2.86-6.388 6.388-6.388h45.149zm-14.988 109.083h10.837v-12.776h-17.225v12.776zm30.176 0h10.837v-12.776h-17.225v12.776zm30.175 0h10.837v-12.776h-17.225v12.776zm-60.351 34.823h10.837v-12.776h-17.225v12.776zm30.176 0h10.837v-12.776h-17.225v12.776zm30.175 0h10.837v-12.776h-17.225v12.776zm-60.351 34.822h10.837v-12.776h-17.225v12.776zm30.176 0h10.837v-12.776h-17.225v12.776zm30.175 0h10.837v-12.776h-17.225v12.776zm-60.351 34.822h10.837v-12.776h-17.225v12.776zm30.176 0h10.837v-12.776h-17.225v12.776zm30.175 0h10.837v-12.776h-17.225v12.776zm-157.433-38.429h10.837v-12.776h-17.225v12.776zm30.175 0h10.837v-12.776h-17.225v12.776zm-30.175 35.724h10.837v-12.776h-17.225v12.776zm30.175 0h10.837v-12.776h-17.225v12.776zm-138.829-16.59h10.837v-12.776h-17.225v12.776zm30.175 0h10.837v-12.776h-17.225v12.776zm0 35.724h10.837v-12.776h-17.225v12.776zm0 35.725h10.837v-12.776h-17.225v12.776zm0 35.724h10.837v-12.776h-17.225v12.776zm175.561-53.055h10.837v-12.776h-17.225v12.776zm0 34.822h10.837v-12.776h-17.225v12.776zm0 34.823h10.837v-12.776h-17.225v12.776z" fill-rule="evenodd"/></svg>