<svg id="Layer_1" height="512" viewBox="0 0 66 66" width="512" xmlns="http://www.w3.org/2000/svg"><g><path d="m28.1 12.3c3.1 0 5.6-2.5 5.6-5.6s-2.5-5.6-5.6-5.6-5.6 2.5-5.6 5.6 2.6 5.6 5.6 5.6zm0-9.2c2 0 3.6 1.6 3.6 3.6s-1.6 3.6-3.6 3.6-3.6-1.6-3.6-3.6 1.7-3.6 3.6-3.6z"/><path d="m26.5 56.6c-.4-.4-1-.4-1.4 0l-2.8 2.8c-.4.4-.4 1 0 1.4s1 .4 1.4 0l1.1-1.1v4.2c0 .6.4 1 1 1s1-.4 1-1v-4.2l1.1 1.1c.4.4 1 .4 1.4 0s.4-1 0-1.4z"/><path d="m41.2 47.5c-.4-.4-1-.4-1.4 0l-2.8 2.8c-.4.4-.4 1 0 1.4s1 .4 1.4 0l1.1-1.1v13.3c0 .6.4 1 1 1s1-.4 1-1v-13.3l1.1 1.1c.4.4 1 .4 1.4 0s.4-1 0-1.4z"/><path d="m57.1 38.8c-.4-.4-1-.4-1.4 0l-2.8 2.8c-.4.4-.4 1 0 1.4s1 .4 1.4 0l1.1-1.1v21.9c0 .6.4 1 1 1s1-.4 1-1v-21.9l1.1 1.1c.4.4 1 .4 1.4 0s.4-1 0-1.4z"/><path d="m64 33.5h-16.8c-.6 0-1 .4-1 1v8.7h-3.6v-7.9c.1-2.9-1.8-5.4-4.6-6.1l-4.7-1.2.2-6.9 2.7 1.9c4 2.8 7.7 0 10.1-.5 1.3-.4 2.1-1.8 1.9-3.1-.3-1.7-2-2.8-3.7-2.2l-2.8.9c-2.4.8-3.5-1.5-6.5-3.5-2.2-1.8-4-1-11.9-1.7-1.7-.1-3.3.6-4.4 1.9l-6.9 8c-.2.3-.4.6-.5.9l-1.5 6.1c-.5 2 1.1 3.9 3.1 3.8 1.3 0 2.4-.9 2.8-2.2 2.1-6.5 1.9-6.2 2-6.3l3.6-3.9v7.8c0 .8.2 1.6.5 2.3l-1.9 18.8c-.1 1 .3 1.9.9 2.5h-4.6c-.6 0-1 .4-1 1v8.7h-13.4c-.6 0-1 .4-1 1s.4 1 1 1h14.4c.6 0 1-.4 1-1v-8.7h14.3c.6 0 1-.4 1-1v-8.4h14.5c.6 0 1-.4 1-1v-8.7h15.8c.6 0 1-.4 1-1s-.4-1-1-1zm-47.5-9.7c-.2.3-.4.6-.5.9l-2 6.2c-.1.4-.5.7-1 .8-.7 0-1.3-.6-1.1-1.3 1.7-6.4 1.6-6.2 1.7-6.3l6.9-8c.7-.8 1.7-1.2 2.8-1.2 8.2.7 9.3.1 10.7 1.3 2.6 1.7 4.6 5.2 8.4 3.9l2.8-.9c.5-.2 1 .2 1.1.7.1.4-.2.8-.6.9-2.6.6-5.4 2.8-8.3.8l-4.2-3c-.3-.2-.7-.2-1-.1-.3.2-.5.5-.5.9l-.2 9.6c0 .5.3.9.8 1l5.5 1.4c1.9.5 3.1 2.2 3 4.1v7.9h-2.8v-5.9c0-1.5-1-2.7-2.5-3l-9.1-1.9c-1.6-.3-2.7-1.8-2.7-3.4v-10.5c0-.4-.3-.8-.6-.9-.4-.2-.8 0-1.1.3zm9.4 10.6 1.6.4-2.5 15.8c-.1.7-.8 1.3-1.5 1.2-.8-.1-1.4-.7-1.3-1.5l1.7-16.8c.5.4 1.2.7 2 .9zm5.8 8.9c-.6 0-1 .4-1 1v8.4h-4.6c.4-.5.7-1.1.9-1.7l2.5-15.8 5.5 1.2c.5.1.9.6.9 1.1v5.9h-4.2z"/></g></svg>