<svg id="Layer_1" enable-background="new 0 0 512 512" viewBox="0 0 512 512" xmlns="http://www.w3.org/2000/svg"><path d="m225.721 93.392c0-4.418 3.582-8 8-8h125.116c4.418 0 8 3.582 8 8s-3.582 8-8 8h-125.116c-4.418 0-8-3.581-8-8zm-65.953 17.061c1.562 1.562 3.609 2.343 5.657 2.343s4.095-.781 5.657-2.343l24.523-24.523c3.125-3.124 3.124-8.189 0-11.313s-8.189-3.124-11.313 0l-18.866 18.867-6.605-6.605c-3.124-3.124-8.189-3.124-11.313 0-3.125 3.124-3.124 8.189 0 11.313zm73.953 76.266h125.116c4.418 0 8-3.582 8-8s-3.582-8-8-8h-125.116c-4.418 0-8 3.582-8 8s3.582 8 8 8zm-73.953 9.918c1.562 1.562 3.609 2.343 5.657 2.343s4.095-.781 5.657-2.343l24.523-24.523c3.125-3.124 3.124-8.189 0-11.313s-8.189-3.124-11.313 0l-18.866 18.867-6.605-6.605c-3.124-3.124-8.189-3.124-11.313 0-3.125 3.124-3.124 8.189 0 11.313zm317.302 141.917-35.377 20.424c-3.664 2.116-7.737 3.196-11.871 3.196-2.083 0-4.18-.273-6.249-.828-6.174-1.654-11.327-5.601-14.508-11.11l-.968-1.676-17.896 9.138c5.351 8.484 4.577 18.946-.125 27.03-2.364 4.063-5.742 7.564-9.789 9.982 2.347 3.842 3.594 8.247 3.577 12.938-.036 9.723-5.511 19.126-13.949 23.956-4.688 2.683-9.873 3.724-15.064 3.124-.266 4.362-1.609 8.648-3.804 12.417-4.642 7.97-13.188 13.735-23.017 13.483-.105 4.711-1.48 9.374-3.847 13.437-4.534 7.783-12.783 13.492-22.331 13.492-4.349 0-8.968-1.185-13.627-3.898l-21.128-12.303-4.11 5.844c-5.149 7.32-12.694 11.386-20.964 11.386-.758 0-1.522-.034-2.291-.103-9.485-.851-18.219-6.874-22.417-15.41-8.911 4.605-19.275 2.929-26.93-2.455-4.943-3.477-8.814-8.539-10.58-14.367-7.349 1.607-15.047-.334-21.07-4.571-7.502-5.277-12.532-14.207-11.485-23.921-4.717-.495-9.278-2.27-13.148-4.992-10.724-7.545-16.395-22.557-6.482-36.649l.68-.967-26.521-33.119c-3.206 4.568-7.872 7.847-13.351 9.315-2.068.555-4.167.828-6.249.828-4.134 0-8.207-1.08-11.872-3.196l-35.376-20.425c-11.406-6.584-15.328-21.221-8.743-32.628l62.088-107.54c1.908-3.304 4.494-5.976 7.479-7.951v-159.021c0-4.418 3.582-8 8-8h304.49c4.418 0 8 3.582 8 8v159.021c2.985 1.974 5.572 4.646 7.479 7.95l62.088 107.54c6.585 11.408 2.663 26.044-8.742 32.629zm-365.315-299.14v147.196c3.135.365 6.247 1.357 9.149 3.033l35.377 20.425c5.51 3.181 9.456 8.333 11.11 14.508 1.031 3.849 1.092 7.799.222 11.563l44.354 15.844c18.708-16.722 32.508-22.663 60.975-16.397 26.687 5.875 49.072 5.929 71.344.068-.757-3.618-.666-7.394.322-11.079 1.654-6.175 5.6-11.328 11.111-14.508l35.376-20.425c2.902-1.676 6.014-2.667 9.149-3.032v-147.196zm-22.676 302.822 62.088-107.54c1.044-1.809 1.318-3.932.77-5.978s-1.847-3.749-3.656-4.793l-35.376-20.425c-1.238-.715-2.593-1.055-3.93-1.055-2.728 0-5.383 1.415-6.842 3.941l-62.088 107.54c-2.174 3.766-.879 8.598 2.886 10.771l35.377 20.426c1.81 1.045 3.934 1.319 5.979.769 2.046-.548 3.748-1.846 4.792-3.656zm68.621 65.046 18.386-26.139.003-.005c5.587-7.97-1.203-13.345-2.621-14.342-1.419-.998-8.78-5.568-14.389 2.406l-18.373 26.119c-5.611 7.977 1.183 13.36 2.602 14.358 1.418.999 8.775 5.571 14.387-2.391zm26.195 26.689 25.684-36.514 3.905-5.552c5.611-7.977-1.184-13.36-2.603-14.358-1.42-.999-8.783-5.574-14.395 2.402l-7.307 10.389c-.001.002-.002.003-.003.005l-.003.005-18.386 26.139-5.449 7.747c-5.611 7.978 1.184 13.361 2.603 14.359 1.419.997 8.783 5.571 14.394-2.403zm35.903 12.888c.006-.008.012-.016.018-.024l9.213-13.099 10.627-15.108c5.609-7.975-1.183-13.358-2.601-14.357-1.417-.996-8.771-5.57-14.381 2.381l-.008.012-25.683 36.513-.005.008c-5.597 7.971 1.193 13.35 2.612 14.348s8.783 5.574 14.393-2.403zm36.709-6.319c-1.419-.999-8.778-5.572-14.387 2.396l-.004.006-9.213 13.099c-2.342 3.33-2.79 6.615-1.33 9.764 1.676 3.614 5.619 6.388 9.587 6.743 3.456.31 6.397-1.222 8.74-4.552l9.212-13.097c5.609-7.977-1.186-13.361-2.605-14.359zm116.108-77.988-98.927-57.263c-8.893-5.136-17.684-1.435-31.292 5.024-.661.313-1.321.627-1.983.939-.993 1.994-1.995 4.135-3.038 6.363-5.138 10.978-10.962 23.419-21.036 28.857-11.857 6.399-22.438 7.376-29.794 2.748-3.386-2.131-8.984-7.427-8.437-18.965l2.118-44.59c.096-2.032.964-3.951 2.426-5.367 4.161-4.029 7.894-7.708 11.505-11.265 1.651-1.626 3.24-3.191 4.791-4.711l-38.476-13.745-50.036 86.666 27.449 34.278 8.107-11.526c9.909-14.09 25.951-13.828 36.676-6.292 3.491 2.453 6.447 5.697 8.505 9.443 9.321-5.979 20.683-4.477 28.913 1.312 6.906 4.857 11.717 12.812 11.622 21.622 5.213.262 10.302 2.11 14.556 5.104 9.49 6.679 15.021 19.204 9.295 31.765 3.639.807 7.11 2.36 10.154 4.502 9.135 6.427 14.596 18.268 9.895 30.345l20.668 12.035c8.429 4.906 13.209-2.322 14.082-3.821.873-1.498 4.799-9.216-3.608-14.127l-.011-.007c-.001-.001-.001-.001-.003-.002 0 0 0 0-.001 0l-26.632-15.506c-3.818-2.223-5.111-7.12-2.888-10.938s7.12-5.11 10.939-2.888l26.632 15.507c.001.001.003.001.004.002l.003.002c.006.003.012.007.018.01l8.328 4.851c8.427 4.905 13.208-2.323 14.082-3.821.873-1.499 4.798-9.217-3.609-14.128l-.012-.007c-.001 0-.001-.001-.002-.001-.002-.001-.004-.003-.006-.004l-32.648-19.01c-3.818-2.223-5.111-7.12-2.888-10.938 2.224-3.818 7.121-5.11 10.939-2.888l32.657 19.015.002.001c.007.004.012.007.018.011l10.452 6.086c3.52 2.05 6.831 2.213 9.843.489 3.458-1.979 5.883-6.145 5.897-10.129.013-3.471-1.765-6.27-5.284-8.319l-8.442-4.916c-.002-.001-.005-.002-.007-.004l-.007-.004c-.001-.001-.003-.002-.004-.003l-32.334-18.826c-3.818-2.223-5.111-7.12-2.888-10.938 2.224-3.818 7.12-5.11 10.939-2.888l32.334 18.826c8.429 4.896 13.203-2.334 14.075-3.833.87-1.5 4.793-9.227-3.631-14.133zm27.471-27.867-48.716-84.38c-33.599 9.485-62.586 5.152-81.867.907-28.167-6.197-35.068.602-64.116 29.221-2.833 2.791-5.976 5.887-9.329 9.151l-1.968 41.433c-.129 2.716.397 4.299.976 4.663 1.353.85 6.264.714 13.673-3.286 5.424-2.928 10.057-12.826 14.145-21.56 1.483-3.17 3.018-6.446 4.598-9.423.821-1.545 2.126-2.778 3.715-3.512 1.448-.668 2.894-1.354 4.337-2.04 13.843-6.572 29.533-14.021 46.162-4.422l95.184 55.096zm71.869-20.76-62.087-107.539c-2.174-3.766-7.007-5.06-10.772-2.886l-35.377 20.425c-1.809 1.044-3.107 2.747-3.656 4.793-.548 2.046-.275 4.169.77 5.978l62.088 107.541c1.044 1.809 2.747 3.107 4.793 3.655 2.048.552 4.169.276 5.978-.769l35.378-20.425c3.765-2.174 5.06-7.007 2.885-10.773z"/></svg>