<svg id="Artboard_30" enable-background="new 0 0 64 64" height="512" viewBox="0 0 64 64" width="512" xmlns="http://www.w3.org/2000/svg"><g><path d="m7 63c2.232 0 4.18-1.228 5.213-3.041 3.205-.2 7.196-1.553 11.619-3.959h.237c.495 3.94 3.859 7 7.931 7s7.436-3.06 7.931-7h.237c4.851 2.638 9.112 3.984 12.436 3.984 2.299 0 4.152-.641 5.446-1.935 2.978-2.978 2.54-8.735-1.201-16.249.71-.721 1.151-1.709 1.151-2.8 0-2.206-1.794-4-4-4-.368 0-.718.066-1.057.16-.705-1.048-1.451-2.101-2.241-3.156 5.618-7.501 8.942-14.603 9.262-19.794 1.811-1.034 3.036-2.98 3.036-5.21 0-3.309-2.691-6-6-6-2.234 0-4.183 1.229-5.215 3.045-1.979.121-4.215.673-6.631 1.61-3.603-2.906-8.176-4.655-13.154-4.655-4.985 0-9.564 1.753-13.169 4.666-5.685-2.19-10.337-2.259-12.881.284-2.978 2.978-2.54 8.735 1.201 16.249-.71.722-1.151 1.71-1.151 2.801 0 2.206 1.794 4 4 4 .724 0 1.414-.196 2.015-.547.374 1.167.845 2.294 1.412 3.369-5.606 7.435-9.056 14.638-9.382 19.963-1.816 1.032-3.045 2.981-3.045 5.215 0 3.309 2.691 6 6 6zm16.451-24.027c-3.213-1.621-5.818-4.051-7.624-6.973 2.241-2.883 4.786-5.784 7.588-8.586 2.808-2.808 5.717-5.359 8.606-7.604 2.791 2.177 5.669 4.708 8.565 7.604 2.762 2.762 5.327 5.665 7.594 8.577-.033.054-.071.105-.105.158-.008.01-.015.02-.023.03l.002.002c-1.801 2.839-4.359 5.204-7.503 6.791-.339.171-.551.516-.551.893v3.135h-4v-14.586l2.707-2.707-1.414-1.414-3 3c-.188.187-.293.442-.293.707v15h-4v-15c0-.265-.105-.52-.293-.707l-3-3-1.414 1.414 2.707 2.707v14.586h-4v-3.135c0-.377-.212-.722-.549-.892zm27.549-16.973c0 2.855-.636 5.594-1.793 8.069-2.181-2.744-4.608-5.469-7.207-8.069-2.761-2.761-5.565-5.25-8.336-7.437 3.878-2.858 7.677-5.118 11.104-6.594 3.817 3.478 6.232 8.472 6.232 14.031zm-9 23 .001 2h-20.001v-2zm-2 4v1h-16v-1zm2 3 .001 2h-20.001v-2zm-10 9c-2.967 0-5.431-2.167-5.91-5h11.82c-.479 2.833-2.943 5-5.91 5zm24-22c0 1.103-.897 2-2 2s-2-.897-2-2 .897-2 2-2 2 .897 2 2zm-2 4c.392 0 .764-.074 1.123-.18 3.176 6.443 3.754 11.574 1.513 13.816-2.194 2.193-7.042 1.714-13.222-1.222.362-.363.586-.863.586-1.414v-2c0-1.103-.897-2-2-2v-1c1.103 0 2-.897 2-2v-2c0-1.103-.897-2-2-2v-2.529c3.068-1.661 5.6-4.005 7.462-6.787.608.825 1.184 1.648 1.737 2.467-.738.726-1.199 1.734-1.199 2.849 0 2.206 1.794 4 4 4zm3-40c2.206 0 4 1.794 4 4s-1.794 4-4 4-4-1.794-4-4 1.794-4 4-4zm0 10c.303 0 .598-.03.889-.073-.437 3.446-2.268 7.853-5.195 12.607.194-1.155.306-2.334.306-3.534 0-5.788-2.354-11.036-6.154-14.838 1.51-.53 2.934-.899 4.228-1.061-.044.294-.074.593-.074.899 0 3.309 2.691 6 6 6zm-25-10c4.113 0 7.913 1.327 11.026 3.557-3.465 1.591-7.211 3.873-11.025 6.733-3.846-2.88-7.594-5.152-11.038-6.725 3.115-2.235 6.92-3.565 11.037-3.565zm-24.636 4.364c1.727-1.727 5.227-1.78 9.785-.197-3.61 3.614-5.888 8.54-6.106 13.988-.339-.092-.686-.155-1.043-.155-.392 0-.764.074-1.123.18-3.176-6.443-3.755-11.574-1.513-13.816zm2.636 19.636c-1.103 0-2-.897-2-2s.897-2 2-2c.372 0 .732.103 1.044.294.063 1.04.199 2.063.409 3.063-.375.402-.891.643-1.453.643zm3-5c0-5.557 2.413-10.549 6.229-14.026 3.335 1.42 7.121 3.616 11.13 6.576-2.8 2.208-5.615 4.707-8.359 7.45-2.645 2.645-5.062 5.358-7.212 8.059-1.154-2.472-1.788-5.208-1.788-8.059zm1.543 11.692c1.862 2.778 4.392 5.12 7.457 6.779v2.529c-1.103 0-2 .897-2 2v2c0 1.103.897 2 2 2v1c-1.103 0-2 .897-2 2v2c0 .549.223 1.047.582 1.409-2.864 1.361-5.46 2.207-7.656 2.483.044-.292.074-.588.074-.892 0-3.309-2.691-6-6-6-.306 0-.605.03-.899.075.583-4.66 3.677-10.913 8.442-17.383zm-7.543 19.308c2.206 0 4 1.794 4 4s-1.794 4-4 4-4-1.794-4-4 1.794-4 4-4z"/></g></svg>