<svg id="Layer_1" enable-background="new 0 0 72 72" viewBox="0 0 72 72" xmlns="http://www.w3.org/2000/svg"><g><path d="m7 61.38v3.5c0 .55.45 1 1 1h11c.55 0 1-.45 1-1v-3.5h5.42c.55 0 1-.45 1-1s-.45-1-1-1h-19.42v-5h40.67c.55 0 1-.45 1-1s-.45-1-1-1h-40.67v-2h60v2h-15c-.55 0-1 .45-1 1s.45 1 1 1h15v5h-35.67c-.55 0-1 .45-1 1s.45 1 1 1h21.67v3.5c0 .55.45 1 1 1h11c.55 0 1-.45 1-1v-3.5h2c.55 0 1-.45 1-1v-11c0-.55-.45-1-1-1h-2v-23c0-.55-.45-1-1-1h-31c-.55 0-1 .45-1 1v23h-9.38l-2.07-4.23v-19.77h6.45c1.1 0 2-.9 2-2v-14.25c0-1.1-.9-2-2-2h-10c-.55 0-1 .45-1 1s.45 1 1 1h10v14.25h-21v-14.25h6.63c.55 0 1-.45 1-1s-.45-1-1-1h-6.63c-1.1 0-2 .9-2 2v14.25c0 1.1.9 2 2 2h6.44v9.62c0 .55.45 1 1 1s1-.45 1-1v-9.62h4.11v19h-4.11v-5.38c0-.55-.45-1-1-1s-1 .45-1 1v6.14l-2.07 4.23h-5.37c-.55 0-1 .45-1 1v11c0 .55.45 1 1 1h2zm11 2.5h-9v-2.5h9zm45 0h-9v-2.5h9zm-17-37.5h5v8.34l-1.75-2c-.38-.43-1.13-.43-1.51 0l-1.75 2v-8.34zm-12 0h10v11c0 .42.26.79.65.94s.83.04 1.1-.28l2.75-3.14 2.75 3.14c.19.22.47.34.75.34.12 0 .24-.02.35-.06.39-.15.65-.52.65-.94v-11h10v22h-29zm-19.93 19h4.86l1.47 3h-7.8z"/><path d="m25 11.03c0-.55-.45-1-1-1h-15c-.55 0-1 .45-1 1v4c0 .55.45 1 1 1h15c.55 0 1-.45 1-1zm-2 3h-13v-2h13z"/><path d="m9 17.88c-.55 0-1 .45-1 1s.45 1 1 1h2c.55 0 1-.45 1-1s-.45-1-1-1z"/><path d="m24 17.88h-2c-.55 0-1 .45-1 1s.45 1 1 1h2c.55 0 1-.45 1-1s-.45-1-1-1z"/><path d="m15.5 17.88c-.55 0-1 .45-1 1s.45 1 1 1h2c.55 0 1-.45 1-1s-.45-1-1-1z"/></g></svg>