<svg id="Layer_1" height="512" viewBox="0 0 512 512" width="512" xmlns="http://www.w3.org/2000/svg" data-name="Layer 1"><path d="m159.83 176.207c9.285 6.595 13.691 17.234 11.789 28.464-2.497 14.757.86 26.15 10.565 35.854 4.094 4.094 8.494 7.045 13.312 8.918l-38.161 80.847c-.847 1.794-.553 3.92.75 5.417 1.304 1.497 3.368 2.08 5.263 1.489l41.268-12.901 20.11 38.276c.868 1.652 2.578 2.675 4.425 2.675.117 0 .235-.004.353-.013 1.979-.14 3.689-1.437 4.357-3.306l30.054-84.143c4.65 1.994 9.746 2.979 15.411 2.979 5.79 0 10.987-1.024 15.719-3.108l30.184 84.151c.67 1.868 2.381 3.163 4.361 3.3.116.008.231.012.346.012 1.85 0 3.561-1.025 4.428-2.681l20.059-38.303 41.285 12.846c1.897.592 3.959.002 5.261-1.496 1.301-1.499 1.593-3.625.743-5.419l-38.246-80.75c4.698-1.878 8.998-4.785 13.003-8.791 9.709-9.708 13.066-21.102 10.564-35.854-1.902-11.228 2.505-21.868 11.79-28.463 12.202-8.666 17.885-19.096 17.885-32.824s-5.683-24.159-17.884-32.825c-9.284-6.595-13.691-17.234-11.79-28.464 2.498-14.757-.859-26.149-10.565-35.854-9.71-9.709-21.101-13.064-35.855-10.564-11.232 1.899-21.869-2.505-28.463-11.79-8.666-12.201-19.096-17.885-32.825-17.885s-24.159 5.684-32.825 17.885c-6.594 9.285-17.235 13.693-28.463 11.789-14.758-2.5-26.151.858-35.855 10.565-9.709 9.709-13.066 21.103-10.564 35.855 1.902 11.228-2.505 21.868-11.789 28.463-12.202 8.666-17.885 19.097-17.885 32.825s5.683 24.158 17.884 32.824zm68.449 171.624-16.748-31.877c-1.123-2.138-3.613-3.167-5.918-2.447l-34.369 10.744 34.232-72.525c3.911.336 8.08.125 12.564-.636 11.226-1.9 21.868 2.505 28.462 11.79 2.712 3.819 5.598 6.999 8.703 9.566l-26.927 75.385zm159.519-23.785-34.383-10.698c-2.305-.715-4.794.315-5.915 2.455l-16.706 31.899-27.077-75.49c3.002-2.527 5.802-5.624 8.435-9.332 6.593-9.285 17.232-13.693 28.463-11.789 4.618.781 8.906.989 12.916.609l34.266 72.346zm-222.177-205.336c12.489-8.87 18.417-23.183 15.858-38.286-1.939-11.435.459-19.797 7.776-27.114 7.314-7.313 15.679-9.709 27.114-7.776 15.105 2.56 29.416-3.369 38.286-15.857 6.717-9.458 14.327-13.676 24.672-13.676s17.955 4.218 24.672 13.676c8.87 12.487 23.185 18.42 38.286 15.858 11.436-1.94 19.797.458 27.114 7.775 7.314 7.314 9.712 15.677 7.776 27.115-2.559 15.103 3.37 29.415 15.858 38.285 9.458 6.717 13.675 14.326 13.675 24.673s-4.217 17.954-13.675 24.672c-12.489 8.871-18.417 23.183-15.858 38.286 1.939 11.435-.459 19.797-7.776 27.113-7.314 7.314-15.679 9.711-27.114 7.777-15.1-2.556-29.416 3.369-38.286 15.857-6.717 9.458-14.326 13.675-24.672 13.675s-17.955-4.217-24.672-13.675c-7.509-10.573-18.918-16.444-31.406-16.444-2.264 0-4.563.193-6.88.586-11.434 1.942-19.796-.459-27.114-7.775-7.314-7.314-9.712-15.677-7.777-27.115 2.559-15.103-3.369-29.415-15.858-38.285-9.458-6.718-13.675-14.326-13.675-24.672s4.217-17.956 13.675-24.673zm295.765 268.95c-5.946-6.268-21.5-14.699-58.877-.744-26.387 9.851-60.211 20.262-80.714 24.983.122-1.45.141-2.944.054-4.482-.512-9.057-5.819-24.367-35.608-25.16-31.722-.845-60.128-3.714-95.68-8.07-16.789-2.058-31.789 1.822-47.669 5.932-13.93 3.603-29.673 7.663-49.192 8.401-1.918-4.556-6.427-7.763-11.672-7.763h-24.365c-6.98 0-12.659 5.679-12.659 12.658v99.928c0 6.979 5.679 12.658 12.659 12.658h24.365c6.405 0 11.701-4.786 12.532-10.967 32.91-7.87 66.563-2.214 99.131 3.268 11.534 1.941 22.427 3.775 33.035 4.955 7.979.887 14.509 1.541 20.783 1.541 12.532 0 24.042-2.61 44.032-11.188l141.322-61.358c.043-.019.086-.038.129-.058 10.162-4.759 23.883-12.038 29.995-16.778.664-.515 1.187-1.188 1.521-1.958 4.201-9.666 3.033-19.31-3.122-25.798zm-376.7 105.682c0 1.441-1.217 2.658-2.659 2.658h-24.365c-1.441 0-2.659-1.217-2.659-2.658v-99.928c0-1.441 1.217-2.658 2.659-2.658h24.365c1.441 0 2.659 1.217 2.659 2.658zm371.128-85.054c-5.197 3.709-16.17 9.746-27 14.82l-141.237 61.321c-28.748 12.336-37.823 11.327-59.748 8.888-10.328-1.147-21.088-2.959-32.479-4.876-31.251-5.261-66.493-11.182-100.665-3.694v-86.26c20.298-.834 36.425-4.994 50.71-8.689 15.584-4.032 29.042-7.516 43.948-5.687 35.844 4.392 64.511 7.285 96.63 8.141 16.615.442 25.326 5.734 25.891 15.729.306 5.423-1.259 9.767-4.787 13.28-14.65 14.592-58.493 11.937-79.564 10.661-3.472-.211-6.471-.393-8.943-.487-2.754-.132-5.083 2.045-5.188 4.804-.106 2.759 2.044 5.082 4.804 5.188 2.361.091 5.31.27 8.723.477 8.424.51 18.687 1.132 29.322 1.132 22.13 0 45.86-2.693 57.903-14.689 1.698-1.691 3.115-3.52 4.259-5.478 20.002-4.053 58.375-15.669 87.613-26.586 34.107-12.733 45.459-4.553 48.125-1.741 3.13 3.299 3.721 8.26 1.683 13.746zm-261.629-245.985 14.301 2.819 5.381 12.974-8.123 12.112c-1.331 1.984-1.072 4.632.617 6.32l19.82 19.82c1.689 1.689 4.336 1.946 6.32.617l12.113-8.123 12.973 5.381 2.82 14.301c.462 2.344 2.517 4.033 4.905 4.033h28.03c2.389 0 4.443-1.689 4.905-4.033l2.82-14.301 12.973-5.381 12.113 8.123c1.983 1.329 4.63 1.072 6.32-.617l19.82-19.82c1.689-1.688 1.947-4.336.617-6.32l-8.123-12.112 5.381-12.974 14.301-2.819c2.343-.462 4.033-2.517 4.033-4.905v-28.03c0-2.389-1.689-4.443-4.033-4.905l-14.301-2.82-5.381-12.972 8.124-12.113c1.33-1.984 1.071-4.632-.617-6.32l-19.82-19.82c-1.689-1.689-4.336-1.948-6.32-.617l-12.113 8.123-12.973-5.381-2.82-14.301c-.462-2.344-2.517-4.033-4.905-4.033h-28.03c-2.389 0-4.443 1.689-4.905 4.033l-2.82 14.301-12.973 5.381-12.113-8.123c-1.984-1.331-4.631-1.074-6.32.617l-19.82 19.82c-1.688 1.688-1.947 4.336-.617 6.32l8.124 12.113-5.381 12.972-14.301 2.82c-2.343.462-4.033 2.517-4.033 4.905v28.03c0 2.389 1.689 4.443 4.033 4.905zm5.967-28.825 12.894-2.543c1.64-.323 3.01-1.445 3.651-2.989l7.434-17.919c.642-1.546.467-3.311-.466-4.701l-7.326-10.925 14.007-14.008 10.925 7.326c1.389.932 3.153 1.107 4.7.466l17.92-7.433c1.544-.641 2.667-2.011 2.99-3.651l2.542-12.894h19.81l2.542 12.894c.323 1.641 1.445 3.011 2.99 3.651l17.92 7.433c1.546.642 3.31.466 4.7-.466l10.925-7.326 14.007 14.008-7.326 10.925c-.933 1.391-1.107 3.155-.466 4.701l7.434 17.919c.641 1.544 2.011 2.666 3.651 2.989l12.894 2.543v19.81l-12.894 2.542c-1.64.323-3.01 1.445-3.651 2.989l-7.434 17.921c-.642 1.547-.467 3.311.466 4.701l7.326 10.924-14.007 14.008-10.925-7.326c-1.39-.933-3.154-1.108-4.7-.466l-17.92 7.433c-1.544.641-2.667 2.011-2.99 3.651l-2.542 12.894h-19.81l-2.542-12.894c-.323-1.641-1.445-3.011-2.99-3.651l-17.92-7.433c-1.546-.642-3.311-.466-4.7.466l-10.925 7.326-14.007-14.008 7.326-10.924c.933-1.391 1.107-3.154.466-4.701l-7.434-17.921c-.641-1.544-2.011-2.666-3.651-2.989l-12.894-2.542zm79.175 58.072c26.56 0 48.167-21.608 48.167-48.168s-21.608-48.167-48.167-48.167-48.167 21.607-48.167 48.167 21.608 48.168 48.167 48.168zm0-86.335c21.046 0 38.167 17.122 38.167 38.167s-17.122 38.168-38.167 38.168-38.167-17.122-38.167-38.168 17.122-38.167 38.167-38.167z"/></svg>